<svg width="212" height="283" viewBox="0 0 212 283" fill="none" xmlns="http://www.w3.org/2000/svg">
<path d="M74.5139 76.9445C105.351 114.783 73.2254 178.349 30.34 161.886C11.8437 154.786 1.17097 134.745 0.86321 114.242C0.154524 66.8909 48.0409 44.4508 74.5139 76.9445Z" fill="#FAC663" fill-opacity="0.15"/>
<path d="M111.976 100.723C64.5388 82.5136 81.2395 -3.44721 131.388 0.616594C154.235 2.46998 172.03 25.8975 169.38 55.2182C166.417 88.0854 138.644 110.96 111.976 100.723Z" fill="#FAC663" fill-opacity="0.15"/>
<path d="M69.1654 248.713C76.4519 249.422 88.5939 252.738 100.897 257.266C113.906 262.043 127.095 268.168 134.927 273.957C156.066 289.632 194.392 286.052 200.036 250.228C205.25 217.108 181.096 209.837 186.679 178.696C192.338 147.23 176.024 124.733 154.462 117.725C134.505 111.242 110.053 118.033 94.4075 143.284C77.743 170.194 54.9831 159.438 36.7102 187.533C16.8975 217.949 43.0841 246.194 69.1654 248.713Z" fill="#FAC663" fill-opacity="0.15"/>
<path d="M195.462 132.774C182.044 127.623 173.51 115.411 171.683 101.032C166.253 58.278 216.354 21.2082 248.014 45.4186C288.064 76.0206 242.873 150.973 195.462 132.774Z" fill="#FAC663" fill-opacity="0.15"/>
<path d="M196.076 195.263C195.142 152.17 248.71 120.531 277.696 148.083C312.612 181.268 265.748 248.6 220.079 231.07C205.423 225.444 196.43 211.645 196.076 195.263Z" fill="#FAC663" fill-opacity="0.15"/>
</svg>
